0 Mosaic Model
0 Name: model.ldr
0 Author: Bricky Model Generation System
0 !LDRAW_ORG Unofficial_Model
0 BFC CERTIFY CCW
1 0 0 0 0 1 0 0 0 1 0 0 0 1 3023.dat
1 4 40 0 0 1 0 0 0 1 0 0 0 1 3710.dat
1 4 120 0 0 1 0 0 0 1 0 0 0 1 3710.dat
1 4 200 0 0 1 0 0 0 1 0 0 0 1 3710.dat
1 4 280 0 0 1 0 0 0 1 0 0 0 1 3023.dat
1 1 320 0 0 1 0 0 0 1 0 0 0 1 3710.dat
1 1 400 0 0 1 0 0 0 1 0 0 0 1 3710.dat
1 1 480 0 0 1 0 0 0 1 0 0 0 1 3710.dat
1 1 560 0 0 1 0 0 0 1 0 0 0 1 3710.dat
1 0 0 20 0 1 0 0 0 1 0 0 0 1 3623.dat
1 4 60 20 0 1 0 0 0 1 0 0 0 1 3710.dat
1 4 140 20 0 1 0 0 0 1 0 0 0 1 3710.dat
1 4 220 20 0 1 0 0 0 1 0 0 0 1 3710.dat
1 4 300 20 0 1 0 0 0 1 0 0 0 1 3024.dat
1 1 320 20 0 1 0 0 0 1 0 0 0 1 3710.dat
1 1 400 20 0 1 0 0 0 1 0 0 0 1 3710.dat
1 1 480 20 0 1 0 0 0 1 0 0 0 1 3710.dat
1 1 560 20 0 1 0 0 0 1 0 0 0 1 3710.dat
1 4 0 40 0 1 0 0 0 1 0 0 0 1 3024.dat
1 0 20 40 0 1 0 0 0 1 0 0 0 1 3623.dat
1 4 80 40 0 1 0 0 0 1 0 0 0 1 3710.dat
1 4 160 40 0 1 0 0 0 1 0 0 0 1 3710.dat
1 4 240 40 0 1 0 0 0 1 0 0 0 1 3710.dat
1 1 320 40 0 1 0 0 0 1 0 0 0 1 3710.dat
1 1 400 40 0 1 0 0 0 1 0 0 0 1 3710.dat
1 1 480 40 0 1 0 0 0 1 0 0 0 1 3710.dat
1 1 560 40 0 1 0 0 0 1 0 0 0 1 3710.dat
1 4 0 60 0 1 0 0 0 1 0 0 0 1 3023.dat
1 0 40 60 0 1 0 0 0 1 0 0 0 1 3623.dat
1 4 100 60 0 1 0 0 0 1 0 0 0 1 3710.dat
1 4 180 60 0 1 0 0 0 1 0 0 0 1 3710.dat
1 4 260 60 0 1 0 0 0 1 0 0 0 1 3623.dat
1 1 320 60 0 1 0 0 0 1 0 0 0 1 3710.dat
1 1 400 60 0 1 0 0 0 1 0 0 0 1 3710.dat
1 1 480 60 0 1 0 0 0 1 0 0 0 1 3710.dat
1 1 560 60 0 1 0 0 0 1 0 0 0 1 3710.dat
1 4 0 80 0 1 0 0 0 1 0 0 0 1 3623.dat
1 0 60 80 0 1 0 0 0 1 0 0 0 1 3623.dat
1 4 120 80 0 1 0 0 0 1 0 0 0 1 3710.dat
1 4 200 80 0 1 0 0 0 1 0 0 0 1 3710.dat
1 4 280 80 0 1 0 0 0 1 0 0 0 1 3023.dat
1 1 320 80 0 1 0 0 0 1 0 0 0 1 3710.dat
1 1 400 80 0 1 0 0 0 1 0 0 0 1 3710.dat
1 1 480 80 0 1 0 0 0 1 0 0 0 1 3710.dat
1 1 560 80 0 1 0 0 0 1 0 0 0 1 3710.dat
1 4 0 100 0 1 0 0 0 1 0 0 0 1 3710.dat
1 0 80 100 0 1 0 0 0 1 0 0 0 1 3623.dat
1 4 140 100 0 1 0 0 0 1 0 0 0 1 3710.dat
1 4 220 100 0 1 0 0 0 1 0 0 0 1 3710.dat
1 4 300 100 0 1 0 0 0 1 0 0 0 1 3024.dat
1 1 320 100 0 1 0 0 0 1 0 0 0 1 3710.dat
1 1 400 100 0 1 0 0 0 1 0 0 0 1 3710.dat
1 1 480 100 0 1 0 0 0 1 0 0 0 1 3710.dat
1 1 560 100 0 1 0 0 0 1 0 0 0 1 3710.dat
1 4 0 120 0 1 0 0 0 1 0 0 0 1 3710.dat
1 4 80 120 0 1 0 0 0 1 0 0 0 1 3024.dat
1 0 100 120 0 1 0 0 0 1 0 0 0 1 3623.dat
1 4 160 120 0 1 0 0 0 1 0 0 0 1 3710.dat
1 4 240 120 0 1 0 0 0 1 0 0 0 1 3710.dat
1 1 320 120 0 1 0 0 0 1 0 0 0 1 3710.dat
1 1 400 120 0 1 0 0 0 1 0 0 0 1 3710.dat
1 1 480 120 0 1 0 0 0 1 0 0 0 1 3710.dat
1 1 560 120 0 1 0 0 0 1 0 0 0 1 3710.dat
1 4 0 140 0 1 0 0 0 1 0 0 0 1 3710.dat
1 4 80 140 0 1 0 0 0 1 0 0 0 1 3023.dat
1 0 120 140 0 1 0 0 0 1 0 0 0 1 3623.dat
1 4 180 140 0 1 0 0 0 1 0 0 0 1 3710.dat
1 4 260 140 0 1 0 0 0 1 0 0 0 1 3623.dat
1 1 320 140 0 1 0 0 0 1 0 0 0 1 3710.dat
1 1 400 140 0 1 0 0 0 1 0 0 0 1 3710.dat
1 1 480 140 0 1 0 0 0 1 0 0 0 1 3710.dat
1 1 560 140 0 1 0 0 0 1 0 0 0 1 3710.dat
1 4 0 160 0 1 0 0 0 1 0 0 0 1 3710.dat
1 4 80 160 0 1 0 0 0 1 0 0 0 1 3623.dat
1 0 140 160 0 1 0 0 0 1 0 0 0 1 3623.dat
1 4 200 160 0 1 0 0 0 1 0 0 0 1 3710.dat
1 4 280 160 0 1 0 0 0 1 0 0 0 1 3023.dat
1 1 320 160 0 1 0 0 0 1 0 0 0 1 3710.dat
1 1 400 160 0 1 0 0 0 1 0 0 0 1 3710.dat
1 1 480 160 0 1 0 0 0 1 0 0 0 1 3710.dat
1 1 560 160 0 1 0 0 0 1 0 0 0 1 3710.dat
1 4 0 180 0 1 0 0 0 1 0 0 0 1 3710.dat
1 4 80 180 0 1 0 0 0 1 0 0 0 1 3710.dat
1 0 160 180 0 1 0 0 0 1 0 0 0 1 3623.dat
1 4 220 180 0 1 0 0 0 1 0 0 0 1 3710.dat
1 4 300 180 0 1 0 0 0 1 0 0 0 1 3024.dat
1 1 320 180 0 1 0 0 0 1 0 0 0 1 3710.dat
1 1 400 180 0 1 0 0 0 1 0 0 0 1 3710.dat
1 1 480 180 0 1 0 0 0 1 0 0 0 1 3710.dat
1 1 560 180 0 1 0 0 0 1 0 0 0 1 3710.dat
1 4 0 200 0 1 0 0 0 1 0 0 0 1 3710.dat
1 4 80 200 0 1 0 0 0 1 0 0 0 1 3710.dat
1 4 160 200 0 1 0 0 0 1 0 0 0 1 3024.dat
1 0 180 200 0 1 0 0 0 1 0 0 0 1 3623.dat
1 4 240 200 0 1 0 0 0 1 0 0 0 1 3710.dat
1 1 320 200 0 1 0 0 0 1 0 0 0 1 3710.dat
1 1 400 200 0 1 0 0 0 1 0 0 0 1 3710.dat
1 1 480 200 0 1 0 0 0 1 0 0 0 1 3710.dat
1 1 560 200 0 1 0 0 0 1 0 0 0 1 3710.dat
1 4 0 220 0 1 0 0 0 1 0 0 0 1 3710.dat
1 4 80 220 0 1 0 0 0 1 0 0 0 1 3710.dat
1 4 160 220 0 1 0 0 0 1 0 0 0 1 3023.dat
1 0 200 220 0 1 0 0 0 1 0 0 0 1 3623.dat
1 4 260 220 0 1 0 0 0 1 0 0 0 1 3623.dat
1 1 320 220 0 1 0 0 0 1 0 0 0 1 3710.dat
1 1 400 220 0 1 0 0 0 1 0 0 0 1 3710.dat
1 1 480 220 0 1 0 0 0 1 0 0 0 1 3710.dat
1 1 560 220 0 1 0 0 0 1 0 0 0 1 3710.dat
1 4 0 240 0 1 0 0 0 1 0 0 0 1 3710.dat
1 4 80 240 0 1 0 0 0 1 0 0 0 1 3710.dat
1 4 160 240 0 1 0 0 0 1 0 0 0 1 3623.dat
1 0 220 240 0 1 0 0 0 1 0 0 0 1 3623.dat
1 4 280 240 0 1 0 0 0 1 0 0 0 1 3023.dat
1 1 320 240 0 1 0 0 0 1 0 0 0 1 3710.dat
1 1 400 240 0 1 0 0 0 1 0 0 0 1 3710.dat
1 1 480 240 0 1 0 0 0 1 0 0 0 1 3710.dat
1 1 560 240 0 1 0 0 0 1 0 0 0 1 3710.dat
1 4 0 260 0 1 0 0 0 1 0 0 0 1 3710.dat
1 4 80 260 0 1 0 0 0 1 0 0 0 1 3710.dat
1 4 160 260 0 1 0 0 0 1 0 0 0 1 3710.dat
1 0 240 260 0 1 0 0 0 1 0 0 0 1 3623.dat
1 4 300 260 0 1 0 0 0 1 0 0 0 1 3024.dat
1 1 320 260 0 1 0 0 0 1 0 0 0 1 3710.dat
1 1 400 260 0 1 0 0 0 1 0 0 0 1 3710.dat
1 1 480 260 0 1 0 0 0 1 0 0 0 1 3710.dat
1 1 560 260 0 1 0 0 0 1 0 0 0 1 3710.dat
1 4 0 280 0 1 0 0 0 1 0 0 0 1 3710.dat
1 4 80 280 0 1 0 0 0 1 0 0 0 1 3710.dat
1 4 160 280 0 1 0 0 0 1 0 0 0 1 3710.dat
1 4 240 280 0 1 0 0 0 1 0 0 0 1 3024.dat
1 0 260 280 0 1 0 0 0 1 0 0 0 1 3623.dat
1 1 320 280 0 1 0 0 0 1 0 0 0 1 3710.dat
1 1 400 280 0 1 0 0 0 1 0 0 0 1 3710.dat
1 1 480 280 0 1 0 0 0 1 0 0 0 1 3710.dat
1 1 560 280 0 1 0 0 0 1 0 0 0 1 3710.dat
1 4 0 300 0 1 0 0 0 1 0 0 0 1 3710.dat
1 4 80 300 0 1 0 0 0 1 0 0 0 1 3710.dat
1 4 160 300 0 1 0 0 0 1 0 0 0 1 3710.dat
1 4 240 300 0 1 0 0 0 1 0 0 0 1 3023.dat
1 0 280 300 0 1 0 0 0 1 0 0 0 1 3623.dat
1 1 340 300 0 1 0 0 0 1 0 0 0 1 3710.dat
1 1 420 300 0 1 0 0 0 1 0 0 0 1 3710.dat
1 1 500 300 0 1 0 0 0 1 0 0 0 1 3710.dat
1 1 580 300 0 1 0 0 0 1 0 0 0 1 3623.dat
1 14 0 320 0 1 0 0 0 1 0 0 0 1 3710.dat
1 14 80 320 0 1 0 0 0 1 0 0 0 1 3710.dat
1 14 160 320 0 1 0 0 0 1 0 0 0 1 3710.dat
1 14 240 320 0 1 0 0 0 1 0 0 0 1 3623.dat
1 0 300 320 0 1 0 0 0 1 0 0 0 1 3623.dat
1 2 360 320 0 1 0 0 0 1 0 0 0 1 3710.dat
1 2 440 320 0 1 0 0 0 1 0 0 0 1 3710.dat
1 2 520 320 0 1 0 0 0 1 0 0 0 1 3710.dat
1 2 600 320 0 1 0 0 0 1 0 0 0 1 3023.dat
1 14 0 340 0 1 0 0 0 1 0 0 0 1 3710.dat
1 14 80 340 0 1 0 0 0 1 0 0 0 1 3710.dat
1 14 160 340 0 1 0 0 0 1 0 0 0 1 3710.dat
1 14 240 340 0 1 0 0 0 1 0 0 0 1 3710.dat
1 0 320 340 0 1 0 0 0 1 0 0 0 1 3623.dat
1 2 380 340 0 1 0 0 0 1 0 0 0 1 3710.dat
1 2 460 340 0 1 0 0 0 1 0 0 0 1 3710.dat
1 2 540 340 0 1 0 0 0 1 0 0 0 1 3710.dat
1 2 620 340 0 1 0 0 0 1 0 0 0 1 3024.dat
1 14 0 360 0 1 0 0 0 1 0 0 0 1 3710.dat
1 14 80 360 0 1 0 0 0 1 0 0 0 1 3710.dat
1 14 160 360 0 1 0 0 0 1 0 0 0 1 3710.dat
1 14 240 360 0 1 0 0 0 1 0 0 0 1 3710.dat
1 2 320 360 0 1 0 0 0 1 0 0 0 1 3024.dat
1 0 340 360 0 1 0 0 0 1 0 0 0 1 3623.dat
1 2 400 360 0 1 0 0 0 1 0 0 0 1 3710.dat
1 2 480 360 0 1 0 0 0 1 0 0 0 1 3710.dat
1 2 560 360 0 1 0 0 0 1 0 0 0 1 3710.dat
1 14 0 380 0 1 0 0 0 1 0 0 0 1 3710.dat
1 14 80 380 0 1 0 0 0 1 0 0 0 1 3710.dat
1 14 160 380 0 1 0 0 0 1 0 0 0 1 3710.dat
1 14 240 380 0 1 0 0 0 1 0 0 0 1 3710.dat
1 2 320 380 0 1 0 0 0 1 0 0 0 1 3023.dat
1 0 360 380 0 1 0 0 0 1 0 0 0 1 3623.dat
1 2 420 380 0 1 0 0 0 1 0 0 0 1 3710.dat
1 2 500 380 0 1 0 0 0 1 0 0 0 1 3710.dat
1 2 580 380 0 1 0 0 0 1 0 0 0 1 3623.dat
1 14 0 400 0 1 0 0 0 1 0 0 0 1 3710.dat
1 14 80 400 0 1 0 0 0 1 0 0 0 1 3710.dat
1 14 160 400 0 1 0 0 0 1 0 0 0 1 3710.dat
1 14 240 400 0 1 0 0 0 1 0 0 0 1 3710.dat
1 2 320 400 0 1 0 0 0 1 0 0 0 1 3623.dat
1 0 380 400 0 1 0 0 0 1 0 0 0 1 3623.dat
1 2 440 400 0 1 0 0 0 1 0 0 0 1 3710.dat
1 2 520 400 0 1 0 0 0 1 0 0 0 1 3710.dat
1 2 600 400 0 1 0 0 0 1 0 0 0 1 3023.dat
1 14 0 420 0 1 0 0 0 1 0 0 0 1 3710.dat
1 14 80 420 0 1 0 0 0 1 0 0 0 1 3710.dat
1 14 160 420 0 1 0 0 0 1 0 0 0 1 3710.dat
1 14 240 420 0 1 0 0 0 1 0 0 0 1 3710.dat
1 2 320 420 0 1 0 0 0 1 0 0 0 1 3710.dat
1 0 400 420 0 1 0 0 0 1 0 0 0 1 3623.dat
1 2 460 420 0 1 0 0 0 1 0 0 0 1 3710.dat
1 2 540 420 0 1 0 0 0 1 0 0 0 1 3710.dat
1 2 620 420 0 1 0 0 0 1 0 0 0 1 3024.dat
1 14 0 440 0 1 0 0 0 1 0 0 0 1 3710.dat
1 14 80 440 0 1 0 0 0 1 0 0 0 1 3710.dat
1 14 160 440 0 1 0 0 0 1 0 0 0 1 3710.dat
1 14 240 440 0 1 0 0 0 1 0 0 0 1 3710.dat
1 2 320 440 0 1 0 0 0 1 0 0 0 1 3710.dat
1 2 400 440 0 1 0 0 0 1 0 0 0 1 3024.dat
1 0 420 440 0 1 0 0 0 1 0 0 0 1 3623.dat
1 2 480 440 0 1 0 0 0 1 0 0 0 1 3710.dat
1 2 560 440 0 1 0 0 0 1 0 0 0 1 3710.dat
1 14 0 460 0 1 0 0 0 1 0 0 0 1 3710.dat
1 14 80 460 0 1 0 0 0 1 0 0 0 1 3710.dat
1 14 160 460 0 1 0 0 0 1 0 0 0 1 3710.dat
1 14 240 460 0 1 0 0 0 1 0 0 0 1 3710.dat
1 2 320 460 0 1 0 0 0 1 0 0 0 1 3710.dat
1 2 400 460 0 1 0 0 0 1 0 0 0 1 3023.dat
1 0 440 460 0 1 0 0 0 1 0 0 0 1 3623.dat
1 2 500 460 0 1 0 0 0 1 0 0 0 1 3710.dat
1 2 580 460 0 1 0 0 0 1 0 0 0 1 3623.dat
1 14 0 480 0 1 0 0 0 1 0 0 0 1 3710.dat
1 14 80 480 0 1 0 0 0 1 0 0 0 1 3710.dat
1 14 160 480 0 1 0 0 0 1 0 0 0 1 3710.dat
1 14 240 480 0 1 0 0 0 1 0 0 0 1 3710.dat
1 2 320 480 0 1 0 0 0 1 0 0 0 1 3710.dat
1 2 400 480 0 1 0 0 0 1 0 0 0 1 3623.dat
1 0 460 480 0 1 0 0 0 1 0 0 0 1 3623.dat
1 2 520 480 0 1 0 0 0 1 0 0 0 1 3710.dat
1 2 600 480 0 1 0 0 0 1 0 0 0 1 3023.dat
1 14 0 500 0 1 0 0 0 1 0 0 0 1 3710.dat
1 14 80 500 0 1 0 0 0 1 0 0 0 1 3710.dat
1 14 160 500 0 1 0 0 0 1 0 0 0 1 3710.dat
1 14 240 500 0 1 0 0 0 1 0 0 0 1 3710.dat
1 2 320 500 0 1 0 0 0 1 0 0 0 1 3710.dat
1 2 400 500 0 1 0 0 0 1 0 0 0 1 3710.dat
1 0 480 500 0 1 0 0 0 1 0 0 0 1 3623.dat
1 2 540 500 0 1 0 0 0 1 0 0 0 1 3710.dat
1 2 620 500 0 1 0 0 0 1 0 0 0 1 3024.dat
1 14 0 520 0 1 0 0 0 1 0 0 0 1 3710.dat
1 14 80 520 0 1 0 0 0 1 0 0 0 1 3710.dat
1 14 160 520 0 1 0 0 0 1 0 0 0 1 3710.dat
1 14 240 520 0 1 0 0 0 1 0 0 0 1 3710.dat
1 2 320 520 0 1 0 0 0 1 0 0 0 1 3710.dat
1 2 400 520 0 1 0 0 0 1 0 0 0 1 3710.dat
1 2 480 520 0 1 0 0 0 1 0 0 0 1 3024.dat
1 0 500 520 0 1 0 0 0 1 0 0 0 1 3623.dat
1 2 560 520 0 1 0 0 0 1 0 0 0 1 3710.dat
1 14 0 540 0 1 0 0 0 1 0 0 0 1 3710.dat
1 14 80 540 0 1 0 0 0 1 0 0 0 1 3710.dat
1 14 160 540 0 1 0 0 0 1 0 0 0 1 3710.dat
1 14 240 540 0 1 0 0 0 1 0 0 0 1 3710.dat
1 2 320 540 0 1 0 0 0 1 0 0 0 1 3710.dat
1 2 400 540 0 1 0 0 0 1 0 0 0 1 3710.dat
1 2 480 540 0 1 0 0 0 1 0 0 0 1 3023.dat
1 0 520 540 0 1 0 0 0 1 0 0 0 1 3623.dat
1 2 580 540 0 1 0 0 0 1 0 0 0 1 3623.dat
1 14 0 560 0 1 0 0 0 1 0 0 0 1 3710.dat
1 14 80 560 0 1 0 0 0 1 0 0 0 1 3710.dat
1 14 160 560 0 1 0 0 0 1 0 0 0 1 3710.dat
1 14 240 560 0 1 0 0 0 1 0 0 0 1 3710.dat
1 2 320 560 0 1 0 0 0 1 0 0 0 1 3710.dat
1 2 400 560 0 1 0 0 0 1 0 0 0 1 3710.dat
1 2 480 560 0 1 0 0 0 1 0 0 0 1 3623.dat
1 0 540 560 0 1 0 0 0 1 0 0 0 1 3623.dat
1 2 600 560 0 1 0 0 0 1 0 0 0 1 3023.dat
1 14 0 580 0 1 0 0 0 1 0 0 0 1 3710.dat
1 14 80 580 0 1 0 0 0 1 0 0 0 1 3710.dat
1 14 160 580 0 1 0 0 0 1 0 0 0 1 3710.dat
1 14 240 580 0 1 0 0 0 1 0 0 0 1 3710.dat
1 2 320 580 0 1 0 0 0 1 0 0 0 1 3710.dat
1 2 400 580 0 1 0 0 0 1 0 0 0 1 3710.dat
1 2 480 580 0 1 0 0 0 1 0 0 0 1 3710.dat
1 0 560 580 0 1 0 0 0 1 0 0 0 1 3623.dat
1 2 620 580 0 1 0 0 0 1 0 0 0 1 3024.dat
1 14 0 600 0 1 0 0 0 1 0 0 0 1 3710.dat
1 14 80 600 0 1 0 0 0 1 0 0 0 1 3710.dat
1 14 160 600 0 1 0 0 0 1 0 0 0 1 3710.dat
1 14 240 600 0 1 0 0 0 1 0 0 0 1 3710.dat
1 2 320 600 0 1 0 0 0 1 0 0 0 1 3710.dat
1 2 400 600 0 1 0 0 0 1 0 0 0 1 3710.dat
1 2 480 600 0 1 0 0 0 1 0 0 0 1 3710.dat
1 2 560 600 0 1 0 0 0 1 0 0 0 1 3024.dat
1 0 580 600 0 1 0 0 0 1 0 0 0 1 3623.dat
1 14 0 620 0 1 0 0 0 1 0 0 0 1 3710.dat
1 14 80 620 0 1 0 0 0 1 0 0 0 1 3710.dat
1 14 160 620 0 1 0 0 0 1 0 0 0 1 3710.dat
1 14 240 620 0 1 0 0 0 1 0 0 0 1 3710.dat
1 2 320 620 0 1 0 0 0 1 0 0 0 1 3710.dat
1 2 400 620 0 1 0 0 0 1 0 0 0 1 3710.dat
1 2 480 620 0 1 0 0 0 1 0 0 0 1 3710.dat
1 2 560 620 0 1 0 0 0 1 0 0 0 1 3023.dat
1 0 600 620 0 1 0 0 0 1 0 0 0 1 3023.dat
